#Comment line ignore any data following # character 
#Hierarchical Translation and Rotation (.htr) file 
[Header]	
#Header keywords are followed by a single value 
FileType HTR		#Single word string
DataType HTRS		#Translation followed by rotation and scale data
FileVersion 1		#integer
NumSegments 84		#integer
NumFrames 2		#integer
DataFrameRate 30		#integer, data frame rate in this file
EulerRotationOrder ZYX
CalibrationUnits mm
RotationUnits Degrees
GlobalAxisofGravity Y
BoneLengthAxis Y
ScaleFactor 1.00
[SegmentNames&Hierarchy]
#CHILD	PARENT
MASTER GLOBAL
root MASTER
chest root
L_mid_tent01 root
R_mid_tent01 root
spine01 root
Bip01_Neck chest
L_humerus chest
R_humerus chest
weapon_bone chest
Bip01_Head Bip01_Neck
eye_left_bone Bip01_Head
eye_right_bone Bip01_Head
L_forearm L_humerus
L_front_hand L_forearm
L_weapon_bone L_forearm
L_front_hand01_01 L_front_hand
L_front_hand02_01 L_front_hand
L_front_hand03_01 L_front_hand
L_front_hand01_02 L_front_hand01_01
L_front_hand02_02 L_front_hand02_01
L_front_hand03_02 L_front_hand03_01
R_forearm R_humerus
R_front_hand R_forearm
R_weapon_bone R_forearm
R_front_hand01_01 R_front_hand
R_front_hand02_01 R_front_hand
R_front_hand03_01 R_front_hand
R_front_hand01_02 R_front_hand01_01
R_front_hand02_02 R_front_hand02_01
R_front_hand03_02 R_front_hand03_01
null_rope01_connect L_mid_tent01
Rope1_Seg01 null_rope01_connect
Rope1_Seg02 Rope1_Seg01
Rope1_Seg03 Rope1_Seg02
Rope1_Seg04 Rope1_Seg03
Rope1_Seg05 Rope1_Seg04
Rope1_Seg06 Rope1_Seg05
Rope1_Seg07 Rope1_Seg06
Rope1_Seg09 Rope1_Seg07
L_mid_hand01 Rope1_Seg09
L_mid_hand02 Rope1_Seg09
L_mid_hand03 Rope1_Seg09
null_rope02_connect R_mid_tent01
Rope2_Seg01 null_rope02_connect
Rope2_Seg02 Rope2_Seg01
Rope2_Seg03 Rope2_Seg02
Rope2_Seg04 Rope2_Seg03
Rope2_Seg05 Rope2_Seg04
Rope2_Seg06 Rope2_Seg05
Rope2_Seg07 Rope2_Seg06
Rope2_Seg09 Rope2_Seg07
R_mid_hand01 Rope2_Seg09
R_mid_hand02 Rope2_Seg09
R_mid_hand03 Rope2_Seg09
spine02 spine01
spine03 spine02
pelvis spine03
null_rope03_connect pelvis
null_rope04_connect pelvis
Rope3_Seg01 null_rope03_connect
Rope3_Seg02 Rope3_Seg01
Rope3_Seg03 Rope3_Seg02
Rope3_Seg04 Rope3_Seg03
Rope3_Seg05 Rope3_Seg04
Rope3_Seg06 Rope3_Seg05
Rope3_Seg07 Rope3_Seg06
Rope3_Seg08 Rope3_Seg07
Rope3_Seg09 Rope3_Seg08
R_rear_hand01 Rope3_Seg09
R_rear_hand02 Rope3_Seg09
R_rear_hand03 Rope3_Seg09
Rope4_Seg01 null_rope04_connect
Rope4_Seg02 Rope4_Seg01
Rope4_Seg03 Rope4_Seg02
Rope4_Seg04 Rope4_Seg03
Rope4_Seg05 Rope4_Seg04
Rope4_Seg06 Rope4_Seg05
Rope4_Seg07 Rope4_Seg06
Rope4_Seg08 Rope4_Seg07
Rope4_Seg09 Rope4_Seg08
L_rear_hand01 Rope4_Seg09
L_rear_hand02 Rope4_Seg09
L_rear_hand03 Rope4_Seg09
[BasePosition]
#SegmentName Tx, Ty, Tz, Rx, Ry, Rz, BoneLength
MASTER 0.000000 0.000000 0.000000 -90.000000 0.000000 0.000000 10.000000 
root 0.000000 0.000000 0.000000 0.000000 0.000000 0.000000 10.000000 
chest 0.000000 0.000000 0.000000 0.000000 0.000000 0.000000 10.000000 
L_mid_tent01 0.000000 0.000000 0.000000 0.000000 0.000000 0.000000 10.000000 
R_mid_tent01 0.000000 0.000000 0.000000 0.000000 0.000000 0.000000 10.000000 
spine01 0.000000 0.000000 0.000000 0.000000 0.000000 0.000000 10.000000 
Bip01_Neck 0.000000 0.000000 0.000000 0.000000 0.000000 0.000000 10.000000 
L_humerus 0.000000 0.000000 0.000000 0.000000 0.000000 0.000000 10.000000 
R_humerus 0.000000 0.000000 0.000000 0.000000 0.000000 0.000000 10.000000 
weapon_bone 0.000000 0.000000 0.000000 0.000000 0.000000 0.000000 10.000000 
Bip01_Head 0.000000 0.000000 0.000000 0.000000 0.000000 0.000000 10.000000 
eye_left_bone 0.000000 0.000000 0.000000 0.000000 0.000000 0.000000 10.000000 
eye_right_bone 0.000000 0.000000 0.000000 0.000000 0.000000 0.000000 10.000000 
L_forearm 0.000000 0.000000 0.000000 0.000000 0.000000 0.000000 10.000000 
L_front_hand 0.000000 0.000000 0.000000 0.000000 0.000000 0.000000 10.000000 
L_weapon_bone 0.000000 0.000000 0.000000 0.000000 0.000000 0.000000 10.000000 
L_front_hand01_01 0.000000 0.000000 0.000000 0.000000 0.000000 0.000000 10.000000 
L_front_hand02_01 0.000000 0.000000 0.000000 0.000000 0.000000 0.000000 10.000000 
L_front_hand03_01 0.000000 0.000000 0.000000 0.000000 0.000000 0.000000 10.000000 
L_front_hand01_02 0.000000 0.000000 0.000000 0.000000 0.000000 0.000000 10.000000 
L_front_hand02_02 0.000000 0.000000 0.000000 0.000000 0.000000 0.000000 10.000000 
L_front_hand03_02 0.000000 0.000000 0.000000 0.000000 0.000000 0.000000 10.000000 
R_forearm 0.000000 0.000000 0.000000 0.000000 0.000000 0.000000 10.000000 
R_front_hand 0.000000 0.000000 0.000000 0.000000 0.000000 0.000000 10.000000 
R_weapon_bone 0.000000 0.000000 0.000000 0.000000 0.000000 0.000000 10.000000 
R_front_hand01_01 0.000000 0.000000 0.000000 0.000000 0.000000 0.000000 10.000000 
R_front_hand02_01 0.000000 0.000000 0.000000 0.000000 0.000000 0.000000 10.000000 
R_front_hand03_01 0.000000 0.000000 0.000000 0.000000 0.000000 0.000000 10.000000 
R_front_hand01_02 0.000000 0.000000 0.000000 0.000000 0.000000 0.000000 10.000000 
R_front_hand02_02 0.000000 0.000000 0.000000 0.000000 0.000000 0.000000 10.000000 
R_front_hand03_02 0.000000 0.000000 0.000000 0.000000 0.000000 0.000000 10.000000 
null_rope01_connect 0.000000 0.000000 0.000000 0.000000 0.000000 0.000000 10.000000 
Rope1_Seg01 0.000000 0.000000 0.000000 0.000000 0.000000 0.000000 10.000000 
Rope1_Seg02 0.000000 0.000000 0.000000 0.000000 0.000000 0.000000 10.000000 
Rope1_Seg03 0.000000 0.000000 0.000000 0.000000 0.000000 0.000000 10.000000 
Rope1_Seg04 0.000000 0.000000 0.000000 0.000000 0.000000 0.000000 10.000000 
Rope1_Seg05 0.000000 0.000000 0.000000 0.000000 0.000000 0.000000 10.000000 
Rope1_Seg06 0.000000 0.000000 0.000000 0.000000 0.000000 0.000000 10.000000 
Rope1_Seg07 0.000000 0.000000 0.000000 0.000000 0.000000 0.000000 10.000000 
Rope1_Seg09 0.000000 0.000000 0.000000 0.000000 0.000000 0.000000 10.000000 
L_mid_hand01 0.000000 0.000000 0.000000 0.000000 0.000000 0.000000 10.000000 
L_mid_hand02 0.000000 0.000000 0.000000 0.000000 0.000000 0.000000 10.000000 
L_mid_hand03 0.000000 0.000000 0.000000 0.000000 0.000000 0.000000 10.000000 
null_rope02_connect 0.000000 0.000000 0.000000 0.000000 0.000000 0.000000 10.000000 
Rope2_Seg01 0.000000 0.000000 0.000000 0.000000 0.000000 0.000000 10.000000 
Rope2_Seg02 0.000000 0.000000 0.000000 0.000000 0.000000 0.000000 10.000000 
Rope2_Seg03 0.000000 0.000000 0.000000 0.000000 0.000000 0.000000 10.000000 
Rope2_Seg04 0.000000 0.000000 0.000000 0.000000 0.000000 0.000000 10.000000 
Rope2_Seg05 0.000000 0.000000 0.000000 0.000000 0.000000 0.000000 10.000000 
Rope2_Seg06 0.000000 0.000000 0.000000 0.000000 0.000000 0.000000 10.000000 
Rope2_Seg07 0.000000 0.000000 0.000000 0.000000 0.000000 0.000000 10.000000 
Rope2_Seg09 0.000000 0.000000 0.000000 0.000000 0.000000 0.000000 10.000000 
R_mid_hand01 0.000000 0.000000 0.000000 0.000000 0.000000 0.000000 10.000000 
R_mid_hand02 0.000000 0.000000 0.000000 0.000000 0.000000 0.000000 10.000000 
R_mid_hand03 0.000000 0.000000 0.000000 0.000000 0.000000 0.000000 10.000000 
spine02 0.000000 0.000000 0.000000 0.000000 0.000000 0.000000 10.000000 
spine03 0.000000 0.000000 0.000000 0.000000 0.000000 0.000000 10.000000 
pelvis 0.000000 0.000000 0.000000 0.000000 0.000000 0.000000 10.000000 
null_rope03_connect 0.000000 0.000000 0.000000 0.000000 0.000000 0.000000 10.000000 
null_rope04_connect 0.000000 0.000000 0.000000 0.000000 0.000000 0.000000 10.000000 
Rope3_Seg01 0.000000 0.000000 0.000000 0.000000 0.000000 0.000000 10.000000 
Rope3_Seg02 0.000000 0.000000 0.000000 0.000000 0.000000 0.000000 10.000000 
Rope3_Seg03 0.000000 0.000000 0.000000 0.000000 0.000000 0.000000 10.000000 
Rope3_Seg04 0.000000 0.000000 0.000000 0.000000 0.000000 0.000000 10.000000 
Rope3_Seg05 0.000000 0.000000 0.000000 0.000000 0.000000 0.000000 10.000000 
Rope3_Seg06 0.000000 0.000000 0.000000 0.000000 0.000000 0.000000 10.000000 
Rope3_Seg07 0.000000 0.000000 0.000000 0.000000 0.000000 0.000000 10.000000 
Rope3_Seg08 0.000000 0.000000 0.000000 0.000000 0.000000 0.000000 10.000000 
Rope3_Seg09 0.000000 0.000000 0.000000 0.000000 0.000000 0.000000 10.000000 
R_rear_hand01 0.000000 0.000000 0.000000 0.000000 0.000000 0.000000 10.000000 
R_rear_hand02 0.000000 0.000000 0.000000 0.000000 0.000000 0.000000 10.000000 
R_rear_hand03 0.000000 0.000000 0.000000 0.000000 0.000000 0.000000 10.000000 
Rope4_Seg01 0.000000 0.000000 0.000000 0.000000 0.000000 0.000000 10.000000 
Rope4_Seg02 0.000000 0.000000 0.000000 0.000000 0.000000 0.000000 10.000000 
Rope4_Seg03 0.000000 0.000000 0.000000 0.000000 0.000000 0.000000 10.000000 
Rope4_Seg04 0.000000 0.000000 0.000000 0.000000 0.000000 0.000000 10.000000 
Rope4_Seg05 0.000000 0.000000 0.000000 0.000000 0.000000 0.000000 10.000000 
Rope4_Seg06 0.000000 0.000000 0.000000 0.000000 0.000000 0.000000 10.000000 
Rope4_Seg07 0.000000 0.000000 0.000000 0.000000 0.000000 0.000000 10.000000 
Rope4_Seg08 0.000000 0.000000 0.000000 0.000000 0.000000 0.000000 10.000000 
Rope4_Seg09 0.000000 0.000000 0.000000 0.000000 0.000000 0.000000 10.000000 
L_rear_hand01 0.000000 0.000000 0.000000 0.000000 0.000000 0.000000 10.000000 
L_rear_hand02 0.000000 0.000000 0.000000 0.000000 0.000000 0.000000 10.000000 
L_rear_hand03 0.000000 0.000000 0.000000 0.000000 0.000000 0.000000 10.000000 
#Beginning of Data. Separated by tabs
#Fr	Tx	Ty	Tz	Rx	Ry	Rz	SF
[MASTER]
18 -3083.984619 4423.578125 2037.591675 0.001660 0.001660 0.001660 5764.615234
19 -3280.024658 4663.583008 2019.681396 0.001660 0.001660 0.001660 6048.692383
[root]
18 -37.882385 -51.398621 1502.621826 -60.474754 -20.519854 -101.207268 1503.977783
19 -37.610161 -53.509224 1502.613037 -65.017258 -21.500648 -99.988419 1504.035767
[chest]
18 -84.512650 -34.090519 0.000000 20.281052 -4.465184 148.166412 91.129311
19 -84.512650 -34.090519 0.000000 17.934603 -7.642764 149.354797 91.129311
[L_mid_tent01]
18 27.298870 22.179131 -249.918991 2.292556 25.358442 79.752396 252.381943
19 27.298857 22.179123 -249.919022 2.427402 26.447683 79.889877 252.381973
[R_mid_tent01]
18 23.228794 24.509907 226.238495 161.299118 -39.988049 84.827385 228.744751
19 23.228794 24.509907 226.238495 161.227875 -40.508480 85.054222 228.744751
[spine01]
18 -0.361383 -0.195265 0.000000 0.002047 0.001149 31.407825 0.410763
19 -0.361383 -0.195265 0.000000 0.002044 0.001154 31.099689 0.410763
[Bip01_Neck]
18 165.484543 71.581718 0.000119 176.643677 -1.657967 43.431911 180.302734
19 165.484543 71.581718 0.000119 176.643677 -1.657967 43.431911 180.302734
[L_humerus]
18 -13.983130 -135.272980 -120.471481 -7.039400 63.862324 82.803917 181.680161
19 -13.983130 -135.272980 -120.471481 -6.996173 64.017929 82.851776 181.680161
[R_humerus]
18 -13.983309 -135.273102 125.287651 25.646862 -64.655174 70.080200 184.909012
19 -13.983309 -135.273102 125.287651 25.698759 -64.815109 70.025986 184.909012
[weapon_bone]
18 235.964890 -300.705902 0.000000 0.000000 -89.951546 -128.212341 382.234833
19 235.964890 -300.705902 0.000000 0.000000 -89.951546 -128.212341 382.234833
[Bip01_Head]
18 213.543381 185.440063 15.337524 4.440182 -1.153556 -43.900532 283.238464
19 213.500961 185.557358 13.822117 4.439694 -0.993684 -43.899052 283.205292
[eye_left_bone]
18 -24.626970 125.451866 -64.772606 0.000000 -90.000000 -99.840431 143.318359
19 -24.626970 125.451866 -64.772606 0.000000 -90.000000 -99.840431 143.318359
[eye_right_bone]
18 -24.626970 125.451866 64.327362 0.000000 -89.965736 80.156380 143.117676
19 -24.626970 125.451866 64.327362 0.000000 -89.965736 80.156380 143.117676
[L_forearm]
18 322.776093 0.000000 -0.000119 0.000430 -0.002307 -111.119781 322.776093
19 322.776093 0.000000 -0.000119 0.000429 -0.002308 -111.057785 322.776093
[L_front_hand]
18 241.149185 -0.042021 -3.300071 -178.667953 -1.835447 -27.422350 241.171753
19 241.149185 -0.042021 -3.300071 -178.667953 -1.835447 -27.422350 241.171753
[L_weapon_bone]
18 156.183838 0.000000 0.000000 0.000014 0.000007 0.000001 156.183838
19 156.183838 0.000000 0.000000 0.000014 0.000007 0.000001 156.183838
[L_front_hand01_01]
18 86.095154 20.947098 -0.655860 -0.289102 -0.524108 66.611076 88.609184
19 86.095154 20.947098 -0.655860 -0.291918 -0.522544 67.227623 88.609184
[L_front_hand02_01]
18 86.935165 -11.437475 24.513514 142.580521 -55.269005 -47.395390 91.046425
19 86.935165 -11.437475 24.513514 143.299149 -55.645802 -48.269920 91.046425
[L_front_hand03_01]
18 86.637497 -14.123976 -20.424902 -142.879883 53.494282 -49.391994 90.126129
19 86.637497 -14.123976 -20.424902 -143.556351 53.862476 -50.232788 90.126129
[L_front_hand01_02]
18 71.020905 -0.000179 0.000030 0.000315 -0.002326 -105.441971 71.020905
19 71.020905 -0.000179 0.000030 0.000316 -0.002326 -105.462708 71.020905
[L_front_hand02_02]
18 71.020927 -0.000119 0.000060 0.000315 -0.002326 -105.441971 71.020927
19 71.020927 -0.000119 0.000060 0.000316 -0.002326 -105.462708 71.020927
[L_front_hand03_02]
18 71.020905 -0.000060 0.000060 0.000315 -0.002326 -105.441971 71.020905
19 71.020905 -0.000060 0.000060 0.000316 -0.002326 -105.462708 71.020905
[R_forearm]
18 322.776428 -0.000060 0.000030 0.201109 0.068162 -109.770760 322.776428
19 322.776428 -0.000060 0.000030 0.201138 0.068078 -109.722389 322.776428
[R_front_hand]
18 238.847015 -0.006795 2.210259 -2.635298 -10.645461 -26.312506 238.857239
19 238.847015 -0.006795 2.210259 -2.635298 -10.645461 -26.312506 238.857239
[R_weapon_bone]
18 155.664093 0.002503 -0.000030 0.003487 0.001180 -90.988930 155.664078
19 155.664093 0.002503 -0.000030 0.003487 0.001180 -90.988930 155.664078
[R_front_hand01_01]
18 87.624611 14.231146 22.918642 -140.217056 -53.925083 44.603291 91.683487
19 87.624611 14.231146 22.918642 -141.470367 -54.661602 46.147430 91.683487
[R_front_hand02_01]
18 89.356956 14.367283 -19.491137 140.984955 52.347897 47.247559 92.579636
19 89.356956 14.367283 -19.491137 142.182632 53.068485 48.753605 92.579636
[R_front_hand03_01]
18 87.286232 -22.307278 -0.143439 0.075044 -0.448119 -64.698715 90.091743
19 87.286232 -22.307278 -0.143439 0.083738 -0.444647 -65.861671 90.091743
[R_front_hand01_02]
18 71.020905 0.000060 0.000119 0.002323 -0.000334 106.381714 71.020905
19 71.020905 0.000060 0.000119 0.002323 -0.000334 106.381714 71.020905
[R_front_hand02_02]
18 71.020844 -0.000030 -0.000119 0.002323 -0.000334 106.381714 71.020836
19 71.020844 -0.000030 -0.000119 0.002323 -0.000334 106.381714 71.020836
[R_front_hand03_02]
18 71.020905 0.000000 0.000030 0.002323 -0.000334 106.381714 71.020905
19 71.020905 0.000000 0.000030 0.002323 -0.000334 106.381714 71.020905
[null_rope01_connect]
18 328.732483 0.000000 -0.000238 -66.016693 -72.854706 96.246010 328.732483
19 328.732483 0.000000 -0.000238 -83.602585 -73.241951 114.412285 328.732483
[Rope1_Seg01]
18 0.000000 0.000000 0.000000 126.307205 23.191423 -169.027771 0.000000
19 0.000000 0.000000 0.000000 120.994003 17.882341 -172.991745 0.000000
[Rope1_Seg02]
18 139.999863 -0.000179 0.000000 8.239036 -10.257099 -2.227612 139.999863
19 139.999863 -0.000179 0.000000 7.200714 -10.061813 -2.637902 139.999863
[Rope1_Seg03]
18 139.999924 0.000060 -0.000060 9.156193 -17.982595 -1.339599 139.999924
19 139.999924 0.000060 -0.000060 8.410805 -17.607752 -2.442319 139.999924
[Rope1_Seg04]
18 139.999924 -0.000060 -0.000119 6.824577 -24.466715 -1.550620 139.999924
19 139.999924 -0.000060 -0.000119 7.298627 -23.600304 -4.775483 139.999924
[Rope1_Seg05]
18 139.999832 0.000119 -0.000060 -0.573895 -20.244110 5.642684 139.999832
19 139.999832 0.000119 -0.000060 -0.571768 -21.238413 4.935934 139.999832
[Rope1_Seg06]
18 139.999954 0.000119 -0.000060 -10.334728 -29.009867 20.953529 139.999954
19 139.999954 0.000119 -0.000060 -11.253411 -29.795990 22.499624 139.999954
[Rope1_Seg07]
18 139.999985 0.000060 0.000000 -18.867144 -22.840769 12.662825 139.999985
19 139.999985 0.000060 0.000000 -16.922581 -20.610933 11.317232 139.999985
[Rope1_Seg09]
18 121.602913 0.000119 -0.000089 -89.793175 -1.359789 0.847147 121.602913
19 121.602913 0.000119 -0.000089 -89.793175 -1.359789 0.847147 121.602913
[L_mid_hand01]
18 103.859421 1.038730 8.195221 129.242493 -66.931091 -37.458961 104.187431
19 103.859421 1.038730 8.195221 130.544373 -67.584534 -38.866943 104.187431
[L_mid_hand02]
18 105.572853 -4.139662 -10.864139 -168.136536 43.236561 -72.353096 106.211075
19 105.572853 -4.139662 -10.864139 -168.923172 43.409309 -73.498886 106.211075
[L_mid_hand03]
18 104.641464 17.579376 -3.913581 -6.285013 17.719217 74.000862 106.179977
19 104.641464 17.579376 -3.913581 -6.012627 17.808174 74.893669 106.179977
[null_rope02_connect]
18 328.732849 0.000179 -0.000119 -139.688202 27.849073 -4.778300 328.732849
19 328.732849 0.000179 -0.000119 -138.122162 30.837717 -1.881146 328.732849
[Rope2_Seg01]
18 0.000054 0.000088 0.000000 -23.129303 -21.648724 -2.099595 0.000103
19 0.000055 0.000084 0.000000 -23.950911 -18.668573 -3.003603 0.000101
[Rope2_Seg02]
18 139.999741 -0.000060 -0.000119 -2.547375 3.610893 2.515038 139.999756
19 139.999741 -0.000060 -0.000119 -2.856280 3.063013 2.885105 139.999756
[Rope2_Seg03]
18 140.000107 0.000030 0.000000 -4.950944 6.020849 4.630349 140.000107
19 140.000107 0.000030 0.000000 -5.494479 5.180963 5.425360 140.000107
[Rope2_Seg04]
18 139.999802 0.000000 -0.000060 -12.710912 11.991910 11.269912 139.999802
19 139.999802 0.000000 -0.000060 -14.048368 10.920466 14.216866 139.999802
[Rope2_Seg05]
18 139.999985 -0.000060 0.000119 -30.552048 23.340189 38.001869 139.999985
19 139.999985 -0.000060 0.000119 -26.401960 19.039764 48.627392 139.999985
[Rope2_Seg06]
18 139.999893 -0.000030 -0.000119 -13.117776 -3.009424 28.574986 139.999893
19 139.999893 -0.000030 -0.000119 -7.527218 -6.832253 27.065199 139.999893
[Rope2_Seg07]
18 139.999893 0.000060 -0.000060 -3.228798 -8.619388 15.032146 139.999893
19 139.999893 0.000060 -0.000060 -0.931667 -9.554392 11.428810 139.999893
[Rope2_Seg09]
18 121.338966 0.000089 -0.000060 33.793236 -1.359788 -0.847141 121.338966
19 121.338966 0.000089 -0.000060 33.793236 -1.359788 -0.847141 121.338966
[R_mid_hand01]
18 104.680779 11.144459 -10.335981 -24.361835 42.075401 58.684284 105.778534
19 104.680779 11.144459 -10.335981 -20.399694 43.830383 64.493835 105.778534
[R_mid_hand02]
18 104.070427 2.443552 8.231699 59.930573 -60.321301 27.236141 104.424065
19 104.070427 2.443552 8.231699 55.242626 -64.206024 32.532070 104.424065
[R_mid_hand03]
18 106.028137 -11.221827 -5.996406 -174.631485 14.897616 -67.203407 106.788818
19 106.028137 -11.221827 -5.996406 -175.861618 15.275425 -71.940262 106.788818
[spine02]
18 129.756927 0.001550 0.000119 0.530016 -4.024931 -15.369446 129.756927
19 129.756927 0.001550 0.000119 0.524662 -4.025641 -15.286874 129.756927
[spine03]
18 78.614258 0.081722 -4.899125 1.998890 3.782508 18.002247 78.766808
19 78.614273 0.081718 -4.899132 1.995439 3.783727 17.947044 78.766823
[pelvis]
18 169.435242 0.051022 0.000000 -0.070208 -0.177785 17.188129 169.435257
19 169.435242 0.051022 0.000000 -0.070045 -0.177849 17.083111 169.435257
[null_rope03_connect]
18 -1.257226 -2.466202 137.391083 0.372046 -61.218700 61.711216 137.418976
19 -1.257226 -2.466202 137.391083 -0.232518 -65.570686 62.974087 137.418976
[null_rope04_connect]
18 -1.259640 -2.480268 -137.844437 0.372046 -61.218700 61.711216 137.872513
19 -1.259640 -2.480268 -137.844437 -0.232518 -65.570686 62.974087 137.872513
[Rope3_Seg01]
18 0.000015 -0.000216 -0.000153 -138.834702 -39.517086 -70.033813 0.000265
19 0.000015 -0.000233 -0.000153 -148.121033 -47.383705 -60.454838 0.000279
[Rope3_Seg02]
18 139.999924 -0.000119 0.000060 6.164627 -17.726208 -3.602351 139.999924
19 139.999924 -0.000119 0.000060 6.019452 -13.471769 1.150263 139.999924
[Rope3_Seg03]
18 139.999924 -0.000119 0.000119 5.548465 -9.976230 3.454252 139.999924
19 139.999924 -0.000119 0.000119 5.855674 -9.173733 8.353464 139.999924
[Rope3_Seg04]
18 139.999924 0.000119 0.000000 4.705698 -9.087622 -1.549340 139.999924
19 139.999924 0.000119 0.000000 5.235745 -10.567421 1.053515 139.999924
[Rope3_Seg05]
18 139.999924 -0.000238 0.000060 13.841722 -18.652681 -12.715223 139.999924
19 139.999924 -0.000238 0.000060 22.654667 -26.506849 -19.740004 139.999924
[Rope3_Seg06]
18 139.999893 -0.000119 -0.000060 29.561636 -17.652929 -7.364742 139.999893
19 139.999893 -0.000119 -0.000060 39.329338 -19.205570 -5.641915 139.999893
[Rope3_Seg07]
18 139.999771 0.000060 -0.000119 28.010723 -9.998682 1.625766 139.999771
19 139.999771 0.000060 -0.000119 25.404408 -8.241338 3.937283 139.999771
[Rope3_Seg08]
18 139.999985 -0.000060 0.000000 16.251022 -4.542957 3.468353 139.999985
19 139.999985 -0.000060 0.000000 11.814965 -3.011239 3.729575 139.999985
[Rope3_Seg09]
18 90.185997 -0.000179 -0.000060 89.793228 -1.359877 -0.847183 90.185997
19 90.185997 -0.000179 -0.000060 89.793228 -1.359877 -0.847183 90.185997
[R_rear_hand01]
18 103.366196 -6.073594 -10.757982 -174.043228 23.976637 -65.002998 104.101845
19 103.366196 -6.073594 -10.757982 -175.914093 24.346796 -69.567566 104.101845
[R_rear_hand02]
18 100.509819 12.039542 -7.992327 -18.533085 34.659092 62.503902 101.543350
19 100.509819 12.039542 -7.992327 -15.704349 35.886925 67.395027 101.543350
[R_rear_hand03]
18 101.539970 5.215704 5.435467 76.952385 -63.971771 15.629117 101.819031
19 101.539970 5.215704 5.435467 74.640678 -68.020927 18.152246 101.819031
[Rope4_Seg01]
18 0.000001 -0.000541 -0.000153 45.692303 0.516760 -135.689621 0.000562
19 0.000001 -0.000570 -0.000153 49.212231 -6.256402 -142.611435 0.000590
[Rope4_Seg02]
18 139.999985 0.000060 0.000119 -6.771633 26.938734 -5.417655 139.999985
19 139.999985 0.000060 0.000119 -9.679537 17.808832 -7.368262 139.999985
[Rope4_Seg03]
18 139.999924 0.000000 -0.000238 1.482038 25.673620 3.911309 139.999924
19 139.999924 0.000000 -0.000238 -1.305757 33.672588 2.510997 139.999924
[Rope4_Seg04]
18 139.999985 0.000000 0.000119 7.334675 22.251774 -22.154076 139.999985
19 139.999985 0.000000 0.000119 -4.059265 30.604706 -50.586643 139.999985
[Rope4_Seg05]
18 139.999802 -0.000060 -0.000119 11.899881 21.468426 -51.829655 139.999802
19 139.999802 -0.000060 -0.000119 3.007044 11.592035 -41.559067 139.999802
[Rope4_Seg06]
18 139.999924 0.000000 0.000060 3.601350 2.368601 -17.212528 139.999924
19 139.999924 0.000000 0.000060 0.598478 2.262746 -8.443166 139.999924
[Rope4_Seg07]
18 139.999802 0.000000 0.000000 0.982574 0.391874 -5.655382 139.999802
19 139.999802 0.000000 0.000000 0.312361 0.866937 -3.404166 139.999802
[Rope4_Seg08]
18 139.999924 0.000000 0.000119 -1.324271 0.050165 -0.938677 139.999924
19 139.999924 0.000000 0.000119 -1.414017 0.180639 -0.727649 139.999924
[Rope4_Seg09]
18 90.185791 0.000060 0.000060 -135.617828 2.228885 0.850567 90.185791
19 90.185791 0.000060 0.000060 -135.617828 2.228885 0.850567 90.185791
[L_rear_hand01]
18 101.696655 -8.392275 -7.654577 -13.354956 -36.717747 108.641342 102.329041
19 101.696655 -8.392275 -7.654577 -12.874829 -36.868488 107.832764 102.329041
[L_rear_hand02]
18 102.726799 -1.568258 5.773216 72.111618 71.190071 159.144638 102.900848
19 102.726799 -1.568258 5.773216 71.484581 71.816628 158.486160 102.900848
[L_rear_hand03]
18 104.552910 9.721220 -10.420293 -177.406540 -24.537506 -106.814919 105.519653
19 104.552910 9.721220 -10.420293 -177.714203 -24.565960 -106.089035 105.519653
